<?xml version="1.0" encoding="utf-8"?>
<!-- Generator: Adobe Illustrator 16.0.0, SVG Export Plug-In . SVG Version: 6.00 Build 0)  -->
<!DOCTYPE svg PUBLIC "-//W3C//DTD SVG 1.1//EN" "http://www.w3.org/Graphics/SVG/1.1/DTD/svg11.dtd">
<svg version="1.1" id="Layer_1" xmlns="http://www.w3.org/2000/svg" xmlns:xlink="http://www.w3.org/1999/xlink" x="0px" y="0px"
	 width="19px" height="15.503px" viewBox="0 0 19 15.503" enable-background="new 0 0 19 15.503" xml:space="preserve">
<g>
	<path fill-rule="evenodd" clip-rule="evenodd" fill="#FFFFFF" d="M5.709,12.142c-1.71,1.295-3.606,1.813-5.709,1.63
		c0.707,0.458,1.452,0.819,2.239,1.098c0.881,0.313,1.785,0.517,2.714,0.591c1.304,0.104,2.597,0.021,3.87-0.304
		c0.885-0.226,1.739-0.532,2.524-0.996c0.526-0.311,1.034-0.659,1.527-1.022c0.612-0.451,1.146-0.993,1.605-1.595
		c0.39-0.51,0.749-1.048,1.084-1.596c0.497-0.814,0.842-1.701,1.098-2.617c0.304-1.086,0.447-2.197,0.402-3.328
		c-0.005-0.103,0.029-0.168,0.106-0.233c0.269-0.223,0.54-0.445,0.795-0.683c0.386-0.36,0.717-0.769,1.034-1.243
		c-0.71,0.289-1.398,0.51-2.134,0.565c0.758-0.523,1.309-1.197,1.611-2.108c-0.101,0.048-0.17,0.077-0.234,0.113
		C17.58,0.79,16.869,1.04,16.128,1.207c-0.092,0.021-0.148,0.001-0.218-0.056c-0.225-0.188-0.442-0.389-0.688-0.548
		C14.394,0.066,13.477-0.1,12.51,0.056c-1.004,0.162-1.824,0.656-2.45,1.461c-0.591,0.76-0.862,1.623-0.812,2.584
		C9.26,4.331,9.292,4.559,9.317,4.81C6.046,4.584,3.375,3.211,1.259,0.726C0.76,1.627,0.616,2.565,0.836,3.551
		c0.22,0.986,0.767,1.76,1.617,2.376C1.805,5.922,1.255,5.733,0.709,5.49c0.108,2.003,1.135,3.274,3.073,3.86
		C3.211,9.495,2.658,9.503,2.06,9.413C2.726,11.094,3.919,11.983,5.709,12.142z"/>
	<path fill-rule="evenodd" clip-rule="evenodd" fill="#FFFFFF" d="M5.709,12.142c-1.79-0.158-2.983-1.047-3.649-2.729
		c0.599,0.09,1.151,0.082,1.723-0.063C1.844,8.764,0.817,7.493,0.709,5.49c0.546,0.244,1.096,0.432,1.744,0.438
		C1.603,5.312,1.056,4.537,0.836,3.551C0.616,2.565,0.76,1.627,1.259,0.726C3.375,3.211,6.046,4.584,9.317,4.81
		C9.292,4.559,9.26,4.331,9.248,4.101C9.197,3.139,9.469,2.276,10.06,1.517c0.626-0.805,1.446-1.299,2.45-1.461
		c0.967-0.156,1.884,0.011,2.713,0.547c0.245,0.159,0.463,0.359,0.688,0.548c0.069,0.058,0.126,0.077,0.218,0.056
		c0.741-0.167,1.452-0.417,2.115-0.792c0.064-0.036,0.134-0.064,0.234-0.113c-0.303,0.911-0.854,1.584-1.611,2.108
		C17.602,2.355,18.29,2.133,19,1.845c-0.317,0.474-0.648,0.883-1.034,1.243c-0.255,0.238-0.526,0.46-0.795,0.683
		c-0.077,0.064-0.111,0.13-0.106,0.233c0.045,1.131-0.099,2.242-0.402,3.328c-0.256,0.916-0.601,1.803-1.098,2.617
		c-0.335,0.548-0.694,1.086-1.084,1.596c-0.46,0.602-0.993,1.144-1.605,1.595c-0.493,0.363-1.001,0.711-1.527,1.022
		c-0.785,0.464-1.64,0.771-2.524,0.996c-1.273,0.324-2.566,0.408-3.87,0.304c-0.929-0.075-1.833-0.278-2.714-0.591
		C1.452,14.59,0.707,14.23,0,13.771C2.103,13.954,3.999,13.437,5.709,12.142z"/>
</g>
</svg>
