<?xml version="1.0" encoding="utf-8"?>
<!-- Generator: Adobe Illustrator 16.0.0, SVG Export Plug-In . SVG Version: 6.00 Build 0)  -->
<!DOCTYPE svg PUBLIC "-//W3C//DTD SVG 1.1//EN" "http://www.w3.org/Graphics/SVG/1.1/DTD/svg11.dtd">
<svg version="1.1" id="Layer_1" xmlns="http://www.w3.org/2000/svg" xmlns:xlink="http://www.w3.org/1999/xlink" x="0px" y="0px"
	 width="7px" height="14.986px" viewBox="0 0 7 14.986" enable-background="new 0 0 7 14.986" xml:space="preserve">
<g>
	<path fill-rule="evenodd" clip-rule="evenodd" fill="#CACACA" d="M1.872,14.986c0.001-0.363,0.003-0.726,0.003-1.089
		c0-2.079,0-4.157,0-6.236c0-0.051,0-0.102,0-0.167c-0.626,0-1.242,0-1.866,0c-0.003-0.052-0.007-0.09-0.007-0.129
		c0-0.774,0.002-1.548-0.002-2.322c-0.001-0.103,0.023-0.137,0.132-0.136c0.538,0.005,1.077,0,1.615,0.004
		c0.099,0,0.13-0.026,0.13-0.127C1.873,4.218,1.868,3.652,1.879,3.085C1.89,2.53,1.949,1.98,2.158,1.457
		c0.239-0.602,0.663-1.011,1.271-1.23c0.4-0.146,0.818-0.214,1.242-0.22c0.766-0.011,1.531-0.003,2.312-0.003
		c0.002,0.04,0.006,0.078,0.006,0.116c0,0.778-0.002,1.556,0.003,2.334c0,0.109-0.036,0.132-0.138,0.131
		C6.427,2.581,6,2.581,5.573,2.589C5.435,2.592,5.295,2.612,5.159,2.642c-0.266,0.058-0.45,0.285-0.458,0.584
		c-0.016,0.53-0.015,1.061-0.025,1.591C4.673,4.919,4.733,4.91,4.799,4.91c0.683,0,1.364,0,2.047,0c0.046,0,0.093,0,0.154,0
		C6.908,5.78,6.818,6.63,6.728,7.489c-0.684,0-1.356,0-2.049,0c0,0.06,0.001,0.11,0,0.16c0,2.406-0.001,4.812-0.002,7.217
		c0,0.04-0.002,0.08-0.003,0.12C3.74,14.986,2.807,14.986,1.872,14.986z"/>
</g>
</svg>
