<?xml version="1.0" encoding="utf-8"?>
<!-- Generator: Adobe Illustrator 16.0.0, SVG Export Plug-In . SVG Version: 6.00 Build 0)  -->
<!DOCTYPE svg PUBLIC "-//W3C//DTD SVG 1.0//EN" "http://www.w3.org/TR/2001/REC-SVG-20010904/DTD/svg10.dtd">
<svg version="1.0" id="Layer_1" xmlns="http://www.w3.org/2000/svg" xmlns:xlink="http://www.w3.org/1999/xlink" x="0px" y="0px"
	 width="21px" height="17.833px" viewBox="0 0 21 17.833" enable-background="new 0 0 21 17.833" xml:space="preserve">
<g>
	<path fill="#A9A9A9" d="M6.603,13.383c-1.709,1.295-3.606,1.813-5.708,1.63c0.707,0.458,1.452,0.819,2.239,1.098
		c0.881,0.313,1.785,0.517,2.714,0.591c1.304,0.104,2.597,0.021,3.87-0.304c0.885-0.226,1.739-0.532,2.525-0.996
		c0.526-0.312,1.034-0.659,1.526-1.022c0.612-0.45,1.146-0.992,1.605-1.594c0.391-0.511,0.749-1.049,1.084-1.597
		c0.497-0.813,0.842-1.701,1.098-2.617c0.305-1.086,0.447-2.197,0.402-3.328c-0.004-0.103,0.029-0.168,0.105-0.233
		c0.27-0.223,0.541-0.445,0.795-0.683c0.387-0.36,0.717-0.769,1.035-1.243c-0.711,0.289-1.399,0.51-2.135,0.565
		c0.758-0.523,1.309-1.197,1.611-2.108c-0.102,0.048-0.17,0.077-0.234,0.113c-0.664,0.375-1.373,0.625-2.115,0.792
		c-0.092,0.021-0.148,0.001-0.217-0.056c-0.226-0.188-0.443-0.389-0.688-0.548c-0.83-0.537-1.746-0.703-2.714-0.547
		c-1.004,0.162-1.823,0.656-2.449,1.461c-0.591,0.76-0.862,1.623-0.812,2.584c0.012,0.23,0.044,0.458,0.069,0.709
		C6.94,5.826,4.269,4.453,2.152,1.968C1.654,2.869,1.51,3.807,1.73,4.793s0.766,1.76,1.617,2.376
		C2.699,7.164,2.149,6.975,1.603,6.731c0.109,2.003,1.135,3.273,3.073,3.859c-0.571,0.146-1.124,0.154-1.722,0.063
		C3.62,12.336,4.813,13.225,6.603,13.383z"/>
	<path fill="#A9A9A9" d="M6.603,13.383c-1.789-0.158-2.983-1.047-3.649-2.729c0.598,0.091,1.151,0.082,1.722-0.063
		c-1.938-0.586-2.964-1.856-3.073-3.859c0.546,0.244,1.096,0.432,1.744,0.438C2.496,6.553,1.95,5.779,1.73,4.793
		S1.654,2.869,2.152,1.968c2.117,2.485,4.788,3.858,8.059,4.084c-0.025-0.251-0.057-0.479-0.069-0.709
		c-0.05-0.961,0.221-1.824,0.812-2.584c0.626-0.805,1.446-1.299,2.45-1.461c0.967-0.156,1.883,0.011,2.713,0.547
		c0.244,0.159,0.463,0.359,0.688,0.548c0.069,0.058,0.125,0.077,0.219,0.056c0.74-0.167,1.451-0.417,2.115-0.792
		c0.063-0.036,0.133-0.063,0.233-0.113c-0.304,0.911-0.854,1.584-1.61,2.108c0.734-0.055,1.424-0.276,2.133-0.565
		c-0.317,0.474-0.647,0.883-1.033,1.243c-0.256,0.238-0.526,0.46-0.795,0.683c-0.078,0.064-0.111,0.13-0.106,0.233
		c0.045,1.131-0.099,2.242-0.401,3.328c-0.257,0.916-0.602,1.804-1.099,2.617c-0.335,0.548-0.694,1.086-1.084,1.597
		c-0.459,0.602-0.993,1.144-1.604,1.594c-0.494,0.363-1,0.712-1.527,1.022c-0.786,0.464-1.64,0.771-2.525,0.996
		c-1.273,0.324-2.566,0.408-3.87,0.304c-0.929-0.074-1.833-0.277-2.714-0.591c-0.787-0.278-1.532-0.64-2.239-1.098
		C2.997,15.196,4.893,14.678,6.603,13.383z"/>
</g>
</svg>
