<?xml version="1.0" encoding="utf-8"?>
<!-- Generator: Adobe Illustrator 16.0.0, SVG Export Plug-In . SVG Version: 6.00 Build 0)  -->
<!DOCTYPE svg PUBLIC "-//W3C//DTD SVG 1.0//EN" "http://www.w3.org/TR/2001/REC-SVG-20010904/DTD/svg10.dtd">
<svg version="1.0" id="Layer_1" xmlns="http://www.w3.org/2000/svg" xmlns:xlink="http://www.w3.org/1999/xlink" x="0px" y="0px"
	 width="7.563px" height="15.469px" viewBox="0 0 7.563 15.469" enable-background="new 0 0 7.563 15.469" xml:space="preserve">
<g>
	<path fill="#A9A9A9" d="M2.185,15.187c0-0.363,0.002-0.726,0.002-1.089c0-2.079,0-4.157,0-6.236c0-0.051,0-0.102,0-0.167
		c-0.626,0-1.242,0-1.866,0c-0.003-0.052-0.007-0.09-0.007-0.129c0-0.773,0.001-1.548-0.002-2.321c0-0.104,0.024-0.138,0.132-0.137
		c0.539,0.005,1.077,0,1.616,0.004c0.099,0,0.13-0.025,0.129-0.127C2.185,4.418,2.18,3.852,2.191,3.285
		C2.202,2.73,2.262,2.181,2.47,1.656c0.24-0.602,0.664-1.01,1.271-1.229c0.4-0.146,0.818-0.214,1.242-0.22
		C5.75,0.196,6.515,0.204,7.296,0.204C7.297,0.244,7.3,0.281,7.3,0.32c0,0.778-0.001,1.557,0.003,2.334
		c0.001,0.109-0.035,0.133-0.137,0.132C6.74,2.781,6.313,2.781,5.886,2.79C5.748,2.792,5.607,2.813,5.472,2.842
		C5.206,2.9,5.022,3.127,5.013,3.426c-0.015,0.53-0.015,1.061-0.025,1.591C4.986,5.12,5.046,5.11,5.111,5.11
		c0.683,0,1.365,0,2.048,0c0.046,0,0.093,0,0.153,0C7.22,5.98,7.131,6.831,7.04,7.69c-0.685,0-1.357,0-2.048,0
		c0,0.061,0,0.11,0,0.16c-0.001,2.406-0.001,4.813-0.004,7.218c0,0.04-0.001,0.08-0.002,0.119
		C4.052,15.187,3.119,15.187,2.185,15.187z"/>
</g>
</svg>
