<?xml version="1.0" encoding="utf-8"?>
<!-- Generator: Adobe Illustrator 16.0.0, SVG Export Plug-In . SVG Version: 6.00 Build 0)  -->
<!DOCTYPE svg PUBLIC "-//W3C//DTD SVG 1.0//EN" "http://www.w3.org/TR/2001/REC-SVG-20010904/DTD/svg10.dtd">
<svg version="1.0" id="Layer_1" xmlns="http://www.w3.org/2000/svg" xmlns:xlink="http://www.w3.org/1999/xlink" x="0px" y="0px"
	 width="26.375px" height="17.25px" viewBox="0 0 26.375 17.25" enable-background="new 0 0 26.375 17.25" xml:space="preserve">
<path fill="#A9A9A9" d="M14.311,3.233c-0.492-0.514-1.041-0.954-1.671-1.286c-1.084-0.57-2.248-0.82-3.464-0.863
	c-1.1-0.04-2.167,0.116-3.196,0.512c-1.352,0.52-2.477,1.348-3.338,2.511C1.398,5.785,0.942,7.676,1.209,9.738
	c0.176,1.363,0.699,2.589,1.554,3.666c0.824,1.039,1.855,1.805,3.083,2.303C7.185,16.25,8.574,16.38,10,16.205
	c0.827-0.102,1.621-0.314,2.373-0.674c1.525-0.725,2.615-1.873,3.277-3.424c0.382-0.895,0.568-1.834,0.625-2.803
	c0.048-0.829,0.009-1.653-0.142-2.47c-0.034-0.187,0.009-0.16-0.188-0.16c-2.489,0-4.979,0-7.468,0c-0.145,0-0.145,0-0.145,0.143
	c0.001,1.106,0.003,2.213-0.001,3.319c0,0.111,0.024,0.143,0.138,0.143c1.21-0.004,2.419-0.004,3.629-0.004c0.042,0,0.085,0,0.125,0
	c0.003,0.022,0.007,0.031,0.005,0.035c-0.229,0.633-0.588,1.174-1.116,1.598c-0.548,0.439-1.177,0.676-1.875,0.746
	c-0.707,0.072-1.384-0.031-2.03-0.326c-0.819-0.374-1.465-0.946-1.927-1.721C4.821,9.832,4.628,8.993,4.787,8.1
	c0.24-1.356,1.023-2.326,2.218-2.973C7.73,4.734,8.514,4.611,9.331,4.705c0.742,0.086,1.41,0.345,1.958,0.866
	c0.12,0.113,0.223,0.244,0.326,0.357C12.528,5.015,13.417,4.126,14.311,3.233z M22.745,11.871c0-0.801,0-1.596,0-2.402
	c0.808,0,1.601,0,2.39,0c0-0.938,0-1.863,0-2.8c-0.799,0-1.591,0-2.396,0c0-0.804,0-1.596,0-2.386
	c-0.029-0.004-0.043-0.007-0.059-0.007c-0.883,0-1.765,0.001-2.646-0.002c-0.098,0-0.094,0.05-0.094,0.117c0,0.717,0,1.435,0,2.152
	c0,0.042,0,0.084,0,0.137c-0.808,0-1.597,0-2.391,0c0,0.935,0,1.859,0,2.798c0.799,0,1.592,0,2.395,0c0,0.807,0,1.6,0,2.394
	C20.88,11.871,21.805,11.871,22.745,11.871z"/>
</svg>
