<?xml version="1.0" encoding="utf-8"?>
<!-- Generator: Adobe Illustrator 16.0.0, SVG Export Plug-In . SVG Version: 6.00 Build 0)  -->
<!DOCTYPE svg PUBLIC "-//W3C//DTD SVG 1.0//EN" "http://www.w3.org/TR/2001/REC-SVG-20010904/DTD/svg10.dtd">
<svg version="1.0" id="Layer_1" xmlns="http://www.w3.org/2000/svg" xmlns:xlink="http://www.w3.org/1999/xlink" x="0px" y="0px"
	 width="22px" height="22.333px" viewBox="0 0 22 22.333" enable-background="new 0 0 22 22.333" xml:space="preserve">
<g>
	<path fill="#A9A9A9" d="M10.893,2.275c1.229,0.021,2.458,0.029,3.686,0.067c1.137,0.036,2.229,0.262,3.183,0.931
		c1.12,0.785,1.741,1.885,1.967,3.218c0.166,0.982,0.158,1.976,0.162,2.967c0.004,1.558,0.01,3.116-0.014,4.673
		c-0.014,0.949-0.043,1.904-0.363,2.816c-0.611,1.738-1.838,2.788-3.627,3.127c-0.801,0.152-1.631,0.189-2.447,0.202
		c-1.795,0.027-3.589,0.021-5.383-0.002c-0.957-0.012-1.916-0.046-2.836-0.371c-1.724-0.608-2.73-1.838-3.12-3.599
		c-0.18-0.813-0.189-1.643-0.195-2.471c-0.012-1.793-0.015-3.588,0.006-5.382c0.011-0.95,0.043-1.903,0.364-2.817
		C2.885,3.897,4.119,2.879,5.9,2.494C6.708,2.32,7.531,2.317,8.351,2.301c0.847-0.016,1.696-0.003,2.543-0.003
		C10.893,2.291,10.893,2.283,10.893,2.275z M18.293,11.31c-0.009,0-0.018,0-0.025,0c0-0.763,0.02-1.526-0.006-2.288
		c-0.025-0.767-0.053-1.538-0.156-2.296c-0.188-1.358-1.11-2.311-2.443-2.612c-0.82-0.186-1.658-0.176-2.489-0.188
		c-1.519-0.021-3.038-0.023-4.556,0.001c-0.766,0.012-1.54,0.04-2.295,0.159c-1.271,0.2-2.146,0.92-2.535,2.179
		C3.55,7.03,3.552,7.82,3.537,8.606c-0.024,1.222-0.034,2.445-0.018,3.667c0.015,1.108,0.022,2.222,0.125,3.325
		c0.14,1.501,1.011,2.543,2.509,2.878c0.814,0.183,1.645,0.171,2.47,0.183c1.511,0.022,3.023,0.022,4.536,0
		c0.766-0.012,1.54-0.041,2.295-0.158c1.298-0.201,2.194-0.937,2.551-2.229c0.118-0.426,0.185-0.875,0.201-1.316
		C18.256,13.741,18.268,12.525,18.293,11.31z"/>
	<path fill="#A9A9A9" d="M10.89,15.913c-2.58,0-4.613-2.054-4.619-4.651c-0.005-2.522,2.104-4.615,4.664-4.594
		c2.51,0.021,4.611,2.106,4.583,4.678C15.491,13.865,13.438,15.913,10.89,15.913z M13.893,11.3c0.004-1.643-1.346-3.001-2.988-3.006
		C9.26,8.289,7.903,9.633,7.894,11.276c-0.009,1.651,1.346,3.016,2.997,3.018C12.533,14.293,13.889,12.942,13.893,11.3z"/>
	<path fill="#A9A9A9" d="M16.775,6.487c0,0.603-0.492,1.099-1.082,1.091C15.096,7.57,14.6,7.067,14.607,6.479
		c0.01-0.593,0.49-1.067,1.084-1.069C16.311,5.41,16.775,5.872,16.775,6.487z"/>
</g>
</svg>
