<?xml version="1.0" encoding="utf-8"?>
<!-- Generator: Adobe Illustrator 16.0.0, SVG Export Plug-In . SVG Version: 6.00 Build 0)  -->
<!DOCTYPE svg PUBLIC "-//W3C//DTD SVG 1.1//EN" "http://www.w3.org/Graphics/SVG/1.1/DTD/svg11.dtd">
<svg version="1.1" id="Layer_1" xmlns="http://www.w3.org/2000/svg" xmlns:xlink="http://www.w3.org/1999/xlink" x="0px" y="0px"
	 width="18px" height="18.021px" viewBox="0 0 18 18.021" enable-background="new 0 0 18 18.021" xml:space="preserve">
<g>
	<path fill-rule="evenodd" clip-rule="evenodd" fill="#FFFFFF" d="M9,0c1.229,0.021,2.458,0.029,3.686,0.067
		c1.137,0.036,2.23,0.262,3.183,0.931c1.12,0.785,1.741,1.885,1.966,3.218C18,5.198,17.993,6.191,17.996,7.183
		c0.004,1.558,0.01,3.116-0.013,4.673c-0.014,0.95-0.043,1.904-0.364,2.817c-0.61,1.738-1.837,2.788-3.627,3.127
		c-0.8,0.152-1.63,0.189-2.447,0.202c-1.794,0.027-3.589,0.02-5.383-0.002c-0.957-0.012-1.916-0.046-2.836-0.371
		c-1.724-0.609-2.73-1.838-3.12-3.599c-0.18-0.813-0.189-1.643-0.195-2.47c-0.012-1.794-0.015-3.589,0.006-5.383
		C0.027,5.229,0.06,4.275,0.38,3.361c0.61-1.738,1.844-2.756,3.625-3.141c0.808-0.175,1.631-0.177,2.451-0.193
		c0.847-0.016,1.695-0.003,2.543-0.003C8.999,0.016,8.999,0.008,9,0z M16.399,9.035c-0.009,0-0.018,0-0.026,0
		c0-0.763,0.02-1.526-0.005-2.288c-0.026-0.766-0.053-1.538-0.157-2.296c-0.188-1.358-1.11-2.31-2.443-2.612
		c-0.82-0.186-1.658-0.176-2.489-0.188C9.76,1.629,8.241,1.627,6.723,1.651c-0.766,0.012-1.54,0.04-2.295,0.159
		c-1.271,0.2-2.146,0.92-2.535,2.179C1.656,4.755,1.659,5.545,1.644,6.331C1.62,7.553,1.61,8.776,1.626,9.999
		c0.015,1.109,0.022,2.222,0.125,3.325c0.14,1.501,1.011,2.543,2.509,2.878c0.814,0.182,1.645,0.171,2.47,0.183
		c1.511,0.022,3.024,0.022,4.536,0c0.766-0.012,1.54-0.041,2.295-0.158c1.298-0.202,2.194-0.937,2.551-2.229
		c0.118-0.426,0.184-0.875,0.201-1.317C16.362,11.466,16.374,10.25,16.399,9.035z"/>
	<path fill-rule="evenodd" clip-rule="evenodd" fill="#FFFFFF" d="M8.997,13.638c-2.58,0-4.613-2.054-4.619-4.652
		C4.373,6.463,6.482,4.37,9.042,4.392c2.511,0.021,4.611,2.106,4.583,4.678C13.597,11.59,11.545,13.638,8.997,13.638z M11.999,9.025
		c0.004-1.643-1.345-3.001-2.987-3.006C7.367,6.013,6.009,7.358,6,9c-0.009,1.651,1.346,3.015,2.997,3.017
		C10.64,12.019,11.995,10.667,11.999,9.025z"/>
	<path fill-rule="evenodd" clip-rule="evenodd" fill="#FFFFFF" d="M14.881,4.212c0,0.603-0.492,1.099-1.082,1.091
		c-0.597-0.008-1.094-0.511-1.085-1.099c0.009-0.593,0.49-1.067,1.084-1.069C14.416,3.135,14.881,3.597,14.881,4.212z"/>
</g>
</svg>
