<?xml version="1.0" encoding="utf-8"?>
<!-- Generator: Adobe Illustrator 16.0.0, SVG Export Plug-In . SVG Version: 6.00 Build 0)  -->
<!DOCTYPE svg PUBLIC "-//W3C//DTD SVG 1.0//EN" "http://www.w3.org/TR/2001/REC-SVG-20010904/DTD/svg10.dtd">
<svg version="1.0" id="Layer_1" xmlns="http://www.w3.org/2000/svg" xmlns:xlink="http://www.w3.org/1999/xlink" x="0px" y="0px"
	 width="24.648px" height="18.375px" viewBox="0 0 24.648 18.375" enable-background="new 0 0 24.648 18.375" xml:space="preserve">
<path fill="#A9A9A9" d="M12.012,17.621c-1.909-0.053-3.819-0.078-5.726-0.165c-1.115-0.052-2.23-0.165-3.338-0.312
	c-1.205-0.16-2.171-1.098-2.461-2.274c-0.231-0.944-0.321-1.907-0.382-2.872c-0.057-0.907-0.097-1.816-0.104-2.724
	c-0.007-0.809,0.016-1.621,0.071-2.428c0.062-0.898,0.161-1.795,0.27-2.689c0.066-0.543,0.201-1.074,0.5-1.546
	C1.359,1.8,2.104,1.345,3.044,1.194c1.309-0.21,2.629-0.285,3.952-0.317c2.041-0.05,4.082-0.111,6.123-0.105
	c1.771,0.005,3.542,0.078,5.311,0.159c0.853,0.039,1.707,0.127,2.549,0.263c1.421,0.23,2.306,1.091,2.58,2.498
	c0.179,0.921,0.296,1.86,0.354,2.796c0.075,1.248,0.1,2.501,0.084,3.75c-0.019,1.441-0.113,2.881-0.385,4.303
	c-0.204,1.077-0.755,1.896-1.763,2.372c-0.496,0.233-1.033,0.301-1.569,0.358c-1.959,0.211-3.927,0.258-5.896,0.291
	c-0.79,0.015-1.581,0.002-2.371,0.002C12.012,17.584,12.012,17.604,12.012,17.621z M15.848,9.174
	c-2.096-1.214-4.156-2.407-6.234-3.609c0,2.424,0,4.809,0,7.222C11.695,11.58,13.753,10.389,15.848,9.174z"/>
</svg>
