<?xml version="1.0" encoding="utf-8"?>
<!-- Generator: Adobe Illustrator 16.0.0, SVG Export Plug-In . SVG Version: 6.00 Build 0)  -->
<!DOCTYPE svg PUBLIC "-//W3C//DTD SVG 1.1//EN" "http://www.w3.org/Graphics/SVG/1.1/DTD/svg11.dtd">
<svg version="1.1" id="Layer_1" xmlns="http://www.w3.org/2000/svg" xmlns:xlink="http://www.w3.org/1999/xlink" x="0px" y="0px"
	 width="33px" height="53.417px" viewBox="257.092 394.799 33 53.417" enable-background="new 257.092 394.799 33 53.417"
	 xml:space="preserve">
<g>
	<g>
		<path fill="#CCCCCC" d="M273.592,418.296c-0.435,0-0.788-0.353-0.788-0.788v-7.682c0-0.435,0.353-0.788,0.788-0.788
			s0.788,0.353,0.788,0.788v7.682C274.38,417.944,274.027,418.296,273.592,418.296z"/>
	</g>
	<g>
		<path fill="#CCCCCC" d="M273.592,448.216c-9.098,0-16.5-7.4-16.5-16.5v-20.417c0-9.098,7.402-16.5,16.5-16.5s16.5,7.402,16.5,16.5
			v20.417C290.092,440.815,282.69,448.216,273.592,448.216z M273.592,396.375c-8.229,0-14.925,6.695-14.925,14.925v20.417
			c0,8.229,6.695,14.926,14.925,14.926s14.925-6.696,14.925-14.926v-20.417C288.517,403.07,281.822,396.375,273.592,396.375z"/>
	</g>
</g>
</svg>
