<?xml version="1.0" encoding="utf-8"?>
<!-- Generator: Adobe Illustrator 16.0.0, SVG Export Plug-In . SVG Version: 6.00 Build 0)  -->
<!DOCTYPE svg PUBLIC "-//W3C//DTD SVG 1.1//EN" "http://www.w3.org/Graphics/SVG/1.1/DTD/svg11.dtd">
<svg version="1.1" id="Layer_1" xmlns="http://www.w3.org/2000/svg" xmlns:xlink="http://www.w3.org/1999/xlink" x="0px" y="0px"
	 width="430.152px" height="95.987px" viewBox="86.261 364.042 430.152 95.987"
	 enable-background="new 86.261 364.042 430.152 95.987" xml:space="preserve">
<polygon points="40.244,366.367 40.248,366.363 40.248,366.359 "/>
<polygon points="40.21,366.48 40.216,366.473 40.216,366.461 "/>
<g>
	<path fill="#231F20" d="M351.416,394.531c-4.553-1.946-9.408-3.214-13.762-3.214c-6.338,0-9.512,1.363-9.512,3.824
		c0,6.997,28.27,1.377,28.27,16.306c0,6.205-5.814,10.974-17.43,10.974c-6.91,0-12.305-1.423-18.492-4.769l2.545-5.58
		c5.449,3.016,10.502,4.344,15.996,4.344c6.895,0,10.584-1.998,10.584-4.969c0-7.648-28.275-1.939-28.275-15.924
		c0-6.046,5.771-10.214,16.166-10.214c6.23,0,11.488,1.374,16.502,3.873L351.416,394.531L351.416,394.531z"/>
	<path fill="#231F20" d="M511.304,394.327c-4.648-1.987-9.611-3.284-14.057-3.284c-6.475,0-9.711,1.395-9.711,3.911
		c0,7.148,28.877,1.403,28.877,16.656c0,6.346-5.939,11.213-17.813,11.213c-7.057,0-12.574-1.449-18.896-4.868l2.611-5.707
		c5.559,3.084,10.723,4.438,16.334,4.438c7.043,0,10.816-2.037,10.816-5.077c0-7.814-28.887-1.974-28.887-16.27
		c0-6.18,5.887-10.435,16.514-10.435c6.367,0,11.736,1.402,16.855,3.958L511.304,394.327L511.304,394.327z"/>
	<polygon fill="#231F20" points="378.394,391.685 378.394,421.976 371.675,421.976 371.675,391.685 356.91,391.685 356.91,385.754 
		393.134,385.754 393.134,391.685 	"/>
	<path fill="#231F20" d="M461.123,402.618c4.205,0,6.584-2.173,6.584-5.315c0-3.444-2.098-5.558-5.855-5.558h-16.568v10.873H461.123
		L461.123,402.618z M456.105,408.639h-10.822v13.349h-6.734v-36.242h23.305c7.723,0,12.498,4.736,12.498,11.558
		c0,6.464-4.676,10.336-10.396,11.158l10.801,13.526h-8.406L456.105,408.639L456.105,408.639z"/>
	<path fill="#231F20" d="M405.396,407.297h13.975l-6.955-14.677L405.396,407.297L405.396,407.297z M402.587,413.188l-4.129,8.8
		h-7.264l17.635-36.242h7.057l17.664,36.242h-7.232l-4.17-8.8H402.587L402.587,413.188z"/>
	<polygon fill="#231F20" points="134.311,394.857 136.636,369.538 126.879,369.538 124.551,394.876 	"/>
	<polygon fill="#231F20" points="116.226,369.538 110.236,434.759 100.484,434.759 106.469,369.538 	"/>
	<polygon fill="#231F20" points="114.803,385.052 86.261,385.052 86.261,394.85 113.902,394.85 	"/>
	<polygon fill="#60B2A8" points="117.626,385.052 116.733,394.85 150.859,394.85 150.859,385.052 	"/>
	<polygon fill="#60B2A8" points="115.28,410.724 114.387,420.521 150.859,420.521 150.859,410.724 	"/>
	<polygon fill="#231F20" points="112.444,410.724 86.261,410.724 86.261,420.521 111.546,420.521 	"/>
	<polygon fill="#231F20" points="121.943,423.353 120.895,434.759 130.646,434.759 131.702,423.275 	"/>
	<polygon fill="#231F20" points="124.294,397.693 123.361,407.884 133.118,407.862 134.054,397.617 	"/>
	<path fill="#60B2A8" d="M213.452,421.388c-9.785-0.404-23.835,1.534-23.835,1.534s1.563-14.295,3.984-22.58
		c2.445-8.374,6.4-14.544,5.549-16.123c-0.852-1.575-5.175-2.075-7.008,0.371c-1.831,2.446-6.603,18.538-6.603,18.538l-8.479,6.137
		c0,0-2.605-5.06-3.331-11.368c-0.621-5.383-0.33-10.013-2.025-11.429c-1.7-1.416-6.61-0.405-6.587,1.419
		c0.064,5.57,0.016,11.956,2.774,19.957c2.654,7.698,5.993,12.979,5.993,12.979l9.117-6.353l-1.295,9.369
		c0,0-26.372,8.172-28.336,9.537c-2.726,1.9-1.866,5.189,0.021,6.574c1.569,1.16,4.543-0.186,5.607-0.328
		c4.085-0.563,9.393,2.313,15.257,6.277c7.525,5.084,7.238,14.129,7.238,14.129l7.931-3.025c0,0,0.395-4.713-1.121-7.531
		c-1.505-2.814-3.777-5.516-3.777-5.516l3.233-0.527l0.923-11.912c0,0,9.26-2.514,23.021-2.031
		c13.765,0.477,25.736,4.691,25.736,4.691l0.377-7.994C237.817,426.185,223.11,421.789,213.452,421.388z M179.713,439.964
		c0,0-1.847-1.15-4.917-2.453c-3.067-1.299-5.342-2.064-5.342-2.064l11.021-2.947L179.713,439.964z"/>
	<path fill="#60B2A8" d="M220.168,404.303c1.012-9.639-3.07-16.506-5.891-18.521c-2.82-2.01-8.249,0.008-10.241,1.33
		c-2.176,1.442-6.277,3.868-6.726,14.639c-0.463,11.001,3.236,18.301,13.057,16.752
		C216.696,417.504,219.503,410.663,220.168,404.303z M208.655,413.982c0,0-4.944-3.445-3.96-13.678c0.829-8.598,5.4-9.733,5.4-9.733
		s2.665,4.443,1.805,11.743C210.893,410.879,208.655,413.982,208.655,413.982z"/>
	<path fill="#60B2A8" d="M223.401,385.15c0,0,0.061,12.709-0.328,18.073c-0.395,5.36-0.115,17.608-0.115,17.608
		c3.052-0.137,4.586-0.262,8.659-1.178c4.192-0.948,7.02-2.318,7.02-2.318s0.329,4.022,2.142,4.631
		c1.82,0.613,7.977,0.564,7.977,0.564s-1.454-2.859-1.68-8.621c-0.228-5.762,0.983-28.007,0.983-28.007l-8.033,1.142l-1.354,24.571
		l-8.393,2.956c0,0,2.267-29.097,1.252-30.767C230.511,382.137,223.401,385.15,223.401,385.15z"/>
	<path fill="#60B2A8" d="M259.237,401.596c0,0-0.479,6.765-0.469,9.89c0.008,2.479,0.648,8.311,0.648,8.311l-8.185,1.037
		c0,0-0.527-4.577-0.538-8.216c-0.023-7.563,0.813-16.518,1.038-19.209c0.287-3.46,0.121-6.223,1.105-7.322
		c0.983-1.097,9.236,0.372,9.236,0.372s1.798,5.879,3.298,9.774c0.863,2.232,2.587,6.687,2.587,6.687l4.946-38.877l8.344,0.367
		c0,0-3.229,21.927-4.274,30.468c-0.875,7.159-2.426,23.969-2.426,23.969l-8.226,0.669c0,0-2.462-5.085-3.454-7.858
		C261.68,408.32,259.237,401.596,259.237,401.596z"/>
	<path fill="#60B2A8" d="M331.763,401.372c0,0-0.344-1.585-0.576-3.111c-0.232-1.528-13.771-2.643-24.127-0.758
		c-10.319,1.882-19.507,4.903-19.507,4.903s1.536-7.485,4.368-11.392c1.727-2.373,5.279-4.111,7.058-2.014
		c0.462,0.545,0.483,3.274,0.483,3.274c5.271-0.242,6.259-1.132,6.259-1.132s-1.211-7.473-8.529-7.461
		c-7.307,0.011-13.599,6.046-16.43,15.127c-2.684,8.617-2.536,18.127,5.86,20.838c4.047,1.306,11.629-1.571,15.315-7.109
		c3.688-5.544,3.553-7.323,3.553-7.323s7.164-2.252,12.873-2.964C323.628,401.596,328.39,401.372,331.763,401.372z M296.271,409.656
		c-0.954,1.241-3.078,3.604-4.877,3.676c-2.359,0.092-3.233-1.88-3.531-2.752c-0.41-1.182-0.497-3.1-0.497-3.1
		s1.374,1.912,2.295,1.86c1.586-0.092,7.851-2.434,7.851-2.434S297.512,408.043,296.271,409.656z"/>
	<g>
		<path fill="#231F20" d="M200.788,372.983v-6.729h2.538c0.447,0,0.788,0.021,1.024,0.064c0.33,0.055,0.607,0.16,0.831,0.314
			c0.223,0.155,0.403,0.371,0.54,0.649c0.136,0.279,0.204,0.584,0.204,0.918c0,0.572-0.182,1.057-0.546,1.453
			c-0.364,0.396-1.022,0.595-1.974,0.595h-1.726v2.735L200.788,372.983L200.788,372.983z M201.678,369.453h1.739
			c0.575,0,0.984-0.107,1.226-0.321c0.242-0.214,0.363-0.515,0.363-0.904c0-0.282-0.071-0.522-0.213-0.723
			c-0.143-0.2-0.33-0.333-0.563-0.397c-0.15-0.04-0.427-0.06-0.831-0.06h-1.721V369.453L201.678,369.453z"/>
		<path fill="#231F20" d="M206.693,369.706c0-1.117,0.3-1.991,0.899-2.623c0.599-0.632,1.374-0.948,2.322-0.948
			c0.621,0,1.181,0.148,1.68,0.445c0.499,0.297,0.879,0.711,1.141,1.242c0.261,0.531,0.392,1.133,0.392,1.806
			c0,0.682-0.138,1.292-0.413,1.831s-0.666,0.946-1.17,1.223c-0.505,0.277-1.049,0.416-1.634,0.416c-0.633,0-1.2-0.153-1.698-0.459
			c-0.499-0.306-0.876-0.724-1.134-1.253C206.821,370.856,206.693,370.296,206.693,369.706z M207.611,369.72
			c0,0.811,0.218,1.45,0.654,1.916c0.436,0.467,0.983,0.7,1.641,0.7c0.67,0,1.221-0.236,1.654-0.707
			c0.433-0.471,0.649-1.14,0.649-2.006c0-0.547-0.092-1.026-0.277-1.434c-0.186-0.409-0.456-0.726-0.813-0.95
			c-0.356-0.225-0.757-0.337-1.2-0.337c-0.63,0-1.173,0.216-1.627,0.649C207.838,367.984,207.611,368.707,207.611,369.72z"/>
		<path fill="#231F20" d="M215.356,372.983l-1.786-6.729h0.914l1.023,4.411c0.11,0.462,0.205,0.921,0.285,1.377
			c0.171-0.719,0.272-1.134,0.303-1.244l1.281-4.544h1.074l0.964,3.405c0.242,0.845,0.416,1.639,0.523,2.382
			c0.085-0.425,0.197-0.914,0.335-1.464l1.056-4.323h0.895l-1.845,6.729h-0.858l-1.418-5.127c-0.12-0.428-0.19-0.691-0.211-0.79
			c-0.07,0.309-0.136,0.572-0.197,0.79l-1.427,5.127H215.356L215.356,372.983z"/>
		<path fill="#231F20" d="M222.978,372.983v-6.729h4.865v0.794h-3.975v2.061h3.723v0.79h-3.723v2.291h4.131v0.794L222.978,372.983
			L222.978,372.983z"/>
		<path fill="#231F20" d="M229.148,372.983v-6.729h2.983c0.6,0,1.056,0.06,1.368,0.181s0.561,0.334,0.748,0.64
			c0.187,0.306,0.28,0.644,0.28,1.015c0,0.477-0.154,0.879-0.463,1.207c-0.309,0.327-0.787,0.536-1.432,0.624
			c0.235,0.113,0.415,0.225,0.537,0.335c0.26,0.239,0.506,0.537,0.739,0.895l1.17,1.832h-1.12l-0.891-1.4
			c-0.26-0.404-0.474-0.713-0.643-0.927c-0.168-0.214-0.319-0.364-0.452-0.45c-0.133-0.085-0.269-0.146-0.406-0.179
			c-0.101-0.021-0.266-0.032-0.496-0.032h-1.033v2.988H229.148z M230.039,369.224h1.914c0.407,0,0.725-0.042,0.955-0.126
			s0.404-0.219,0.523-0.404c0.119-0.185,0.179-0.386,0.179-0.604c0-0.318-0.115-0.58-0.347-0.785
			c-0.231-0.205-0.596-0.308-1.094-0.308h-2.13V369.224z"/>
		<path fill="#231F20" d="M235.848,372.983v-6.729h4.865v0.794h-3.975v2.061h3.723v0.79h-3.723v2.291h4.131v0.794L235.848,372.983
			L235.848,372.983z"/>
		<path fill="#231F20" d="M242.005,372.983v-6.729h2.318c0.523,0,0.923,0.032,1.198,0.096c0.385,0.089,0.714,0.25,0.987,0.482
			c0.354,0.3,0.62,0.683,0.796,1.15c0.176,0.466,0.264,1,0.264,1.6c0,0.511-0.06,0.964-0.179,1.358
			c-0.119,0.395-0.272,0.721-0.459,0.98c-0.187,0.259-0.391,0.462-0.613,0.61c-0.222,0.148-0.489,0.261-0.803,0.337
			c-0.314,0.077-0.674,0.115-1.081,0.115L242.005,372.983L242.005,372.983z M242.896,372.189h1.437c0.444,0,0.792-0.042,1.044-0.124
			c0.252-0.083,0.453-0.199,0.604-0.349c0.211-0.211,0.375-0.495,0.493-0.852c0.118-0.357,0.177-0.789,0.177-1.297
			c0-0.704-0.116-1.244-0.347-1.622c-0.231-0.378-0.512-0.631-0.842-0.76c-0.238-0.092-0.623-0.138-1.152-0.138h-1.414V372.189
			L242.896,372.189z"/>
		<path fill="#231F20" d="M251.18,372.983v-6.729h2.524c0.514,0,0.926,0.068,1.237,0.204s0.554,0.346,0.73,0.629
			c0.176,0.283,0.264,0.579,0.264,0.888c0,0.288-0.078,0.558-0.234,0.812c-0.156,0.254-0.392,0.459-0.707,0.615
			c0.407,0.119,0.72,0.323,0.939,0.61c0.219,0.287,0.328,0.627,0.328,1.019c0,0.315-0.066,0.608-0.2,0.879
			c-0.134,0.271-0.298,0.479-0.494,0.626c-0.196,0.147-0.441,0.258-0.736,0.333c-0.295,0.075-0.657,0.112-1.085,0.112h-2.566
			V372.983z M252.071,369.082h1.455c0.395,0,0.678-0.026,0.849-0.078c0.227-0.067,0.397-0.179,0.512-0.335
			c0.115-0.156,0.172-0.352,0.172-0.587c0-0.224-0.054-0.42-0.161-0.59s-0.26-0.286-0.459-0.349
			c-0.199-0.063-0.54-0.094-1.023-0.094h-1.345V369.082z M252.071,372.189h1.675c0.288,0,0.489-0.011,0.605-0.032
			c0.205-0.037,0.376-0.098,0.514-0.184c0.138-0.085,0.251-0.21,0.34-0.374c0.088-0.164,0.133-0.353,0.133-0.567
			c0-0.251-0.064-0.469-0.192-0.654c-0.129-0.186-0.307-0.315-0.535-0.39c-0.228-0.075-0.556-0.113-0.984-0.113h-1.556V372.189z"/>
		<path fill="#231F20" d="M259.288,372.983v-2.85l-2.593-3.878h1.083l1.326,2.028c0.245,0.38,0.473,0.759,0.684,1.139
			c0.202-0.352,0.447-0.749,0.734-1.189l1.304-1.978h1.037l-2.685,3.878v2.85H259.288L259.288,372.983z"/>
	</g>
	<g>
		<path fill="#231F20" d="M291.526,372.983v-6.729h2.318c0.523,0,0.923,0.032,1.198,0.096c0.385,0.089,0.714,0.25,0.987,0.482
			c0.354,0.3,0.62,0.683,0.796,1.15c0.176,0.466,0.264,1,0.264,1.6c0,0.511-0.06,0.964-0.179,1.358
			c-0.119,0.395-0.272,0.721-0.459,0.98c-0.187,0.259-0.391,0.462-0.613,0.61c-0.222,0.148-0.489,0.261-0.803,0.337
			c-0.314,0.077-0.674,0.115-1.081,0.115L291.526,372.983L291.526,372.983z M292.417,372.189h1.437c0.444,0,0.792-0.042,1.044-0.124
			c0.252-0.083,0.453-0.199,0.604-0.349c0.211-0.211,0.375-0.495,0.493-0.852c0.118-0.357,0.177-0.789,0.177-1.297
			c0-0.704-0.116-1.244-0.347-1.622c-0.231-0.378-0.512-0.631-0.842-0.76c-0.238-0.092-0.623-0.138-1.152-0.138h-1.414V372.189
			L292.417,372.189z"/>
		<path fill="#231F20" d="M297.917,370.821l0.84-0.074c0.039,0.337,0.132,0.613,0.277,0.829c0.146,0.216,0.371,0.39,0.678,0.523
			c0.306,0.133,0.649,0.199,1.031,0.199c0.34,0,0.641-0.05,0.9-0.151c0.259-0.101,0.453-0.239,0.58-0.416
			c0.127-0.176,0.191-0.368,0.191-0.576c0-0.211-0.063-0.396-0.185-0.553c-0.123-0.158-0.325-0.29-0.606-0.397
			c-0.181-0.07-0.58-0.18-1.197-0.328s-1.051-0.289-1.299-0.42c-0.321-0.168-0.562-0.377-0.719-0.626
			c-0.156-0.249-0.236-0.529-0.236-0.838c0-0.339,0.098-0.657,0.289-0.952c0.193-0.295,0.476-0.52,0.846-0.672
			c0.369-0.153,0.781-0.229,1.234-0.229c0.498,0,0.938,0.08,1.318,0.241c0.381,0.161,0.674,0.397,0.879,0.709
			c0.205,0.313,0.315,0.666,0.332,1.061l-0.855,0.064c-0.047-0.425-0.201-0.747-0.467-0.964c-0.265-0.217-0.654-0.326-1.172-0.326
			c-0.539,0-0.932,0.099-1.178,0.296c-0.246,0.197-0.369,0.436-0.369,0.714c0,0.242,0.088,0.44,0.262,0.597
			c0.172,0.156,0.619,0.316,1.343,0.479c0.724,0.164,1.221,0.307,1.489,0.429c0.392,0.181,0.681,0.409,0.867,0.686
			s0.279,0.596,0.279,0.957c0,0.358-0.102,0.695-0.307,1.012c-0.205,0.317-0.5,0.563-0.885,0.739
			c-0.384,0.176-0.815,0.264-1.297,0.264c-0.607,0-1.119-0.089-1.529-0.266c-0.412-0.178-0.735-0.444-0.969-0.801
			C298.053,371.674,297.93,371.271,297.917,370.821z"/>
		<path fill="#231F20" d="M304.359,372.983v-6.729h0.891v3.336l3.342-3.336h1.207l-2.822,2.726l2.945,4.002h-1.174l-2.396-3.406
			l-1.102,1.074v2.332L304.359,372.983L304.359,372.983z"/>
		<path fill="#231F20" d="M313.052,372.983v-6.729h2.525c0.514,0,0.926,0.068,1.236,0.204s0.553,0.346,0.729,0.629
			c0.176,0.283,0.264,0.579,0.264,0.888c0,0.288-0.076,0.558-0.232,0.812s-0.393,0.459-0.707,0.615
			c0.406,0.119,0.721,0.323,0.938,0.61c0.219,0.287,0.328,0.627,0.328,1.019c0,0.315-0.064,0.608-0.199,0.879
			c-0.133,0.271-0.297,0.479-0.492,0.626c-0.197,0.147-0.441,0.258-0.736,0.333c-0.297,0.075-0.658,0.112-1.086,0.112h-2.566
			V372.983z M313.943,369.082h1.455c0.395,0,0.678-0.026,0.85-0.078c0.227-0.067,0.396-0.179,0.512-0.335
			c0.115-0.156,0.172-0.352,0.172-0.587c0-0.224-0.055-0.42-0.16-0.59s-0.262-0.286-0.459-0.349s-0.541-0.094-1.023-0.094h-1.344
			v2.033H313.943z M313.943,372.189h1.676c0.287,0,0.488-0.011,0.605-0.032c0.205-0.037,0.375-0.098,0.514-0.184
			c0.139-0.085,0.252-0.21,0.34-0.374s0.133-0.353,0.133-0.567c0-0.251-0.063-0.469-0.191-0.654
			c-0.129-0.186-0.309-0.315-0.535-0.39c-0.229-0.075-0.557-0.113-0.984-0.113h-1.555v2.314H313.943z"/>
		<path fill="#231F20" d="M318.527,372.983l2.584-6.729h0.959l2.754,6.729h-1.016l-0.783-2.038h-2.814l-0.738,2.038H318.527z
			 M320.468,370.22h2.281l-0.703-1.863c-0.215-0.566-0.373-1.031-0.477-1.396c-0.086,0.432-0.207,0.86-0.363,1.285L320.468,370.22z"
			/>
		<path fill="#231F20" d="M325.431,372.983v-6.729h0.914l3.533,5.283v-5.283h0.855v6.729h-0.912l-3.535-5.288v5.288H325.431z"/>
		<path fill="#231F20" d="M332.099,372.983v-6.729h0.891v3.336l3.342-3.336h1.207l-2.822,2.726l2.947,4.002h-1.176l-2.396-3.406
			l-1.102,1.074v2.332L332.099,372.983L332.099,372.983z"/>
	</g>
</g>
</svg>
