<?xml version="1.0" encoding="utf-8"?>
<!-- Generator: Adobe Illustrator 16.0.0, SVG Export Plug-In . SVG Version: 6.00 Build 0)  -->
<!DOCTYPE svg PUBLIC "-//W3C//DTD SVG 1.1//EN" "http://www.w3.org/Graphics/SVG/1.1/DTD/svg11.dtd">
<svg version="1.1" id="Layer_1" xmlns="http://www.w3.org/2000/svg" xmlns:xlink="http://www.w3.org/1999/xlink" x="0px" y="0px"
	 width="105px" height="85.577px" viewBox="0 0 105 85.577" enable-background="new 0 0 105 85.577" xml:space="preserve">
<g>
	<g>
		<path fill="#5DB0A7" d="M53.426,85.289c-19.419,0-28.107-14.361-28.194-14.509l-0.118-0.2l-1.318-20.945l1.934-0.122l1.289,20.467
			c1.079,1.656,9.638,13.833,27.463,13.356c17.727-0.494,23.234-11.194,23.911-12.671l0.71-21.741l1.938,0.063L80.317,71.09
			l-0.067,0.162c-0.226,0.55-5.763,13.466-25.715,14.021C54.161,85.283,53.791,85.289,53.426,85.289z"/>
	</g>
	<g>
		<g>
			<path fill="#5DB0A7" d="M45.848,43.311l-1.283-1.453c0.458-0.403,0.977-0.772,1.542-1.096l0.962,1.683
				C46.617,42.703,46.206,42.995,45.848,43.311z"/>
		</g>
		<g>
			<path fill="#5DB0A7" d="M52.641,53.965l-0.23-0.002c-0.528-0.008-1.06-0.046-1.579-0.112l0.244-1.922
				c0.448,0.057,0.908,0.089,1.365,0.097l0.2,0.001c0.43,0,0.861-0.022,1.281-0.067l0.202,1.928
				C53.637,53.939,53.138,53.965,52.641,53.965z M57.353,53.138l-0.681-1.814c0.921-0.346,1.723-0.8,2.385-1.351l1.239,1.491
				C59.467,52.153,58.477,52.716,57.353,53.138z M47.619,53.033c-1.11-0.444-2.089-1.024-2.906-1.725l1.262-1.471
				c0.655,0.562,1.45,1.032,2.364,1.397L47.619,53.033z M62.397,48.623l-1.812-0.687c0.151-0.399,0.23-0.813,0.237-1.229V46.65
				c0-0.367-0.057-0.735-0.171-1.094l1.847-0.586c0.175,0.548,0.263,1.113,0.263,1.68v0.091
				C62.751,47.378,62.629,48.012,62.397,48.623z M42.647,48.448c-0.235-0.631-0.354-1.286-0.354-1.945l0.001-0.09
				c0.009-0.544,0.1-1.089,0.271-1.617l1.844,0.598c-0.111,0.344-0.172,0.698-0.177,1.053l-0.001,0.057
				c0,0.428,0.079,0.855,0.233,1.271L42.647,48.448z"/>
		</g>
		<g>
			<path fill="#5DB0A7" d="M59.218,43.439c-0.354-0.322-0.76-0.619-1.209-0.886l0.99-1.666c0.56,0.333,1.071,0.708,1.521,1.117
				L59.218,43.439z"/>
		</g>
	</g>
	<g>
		<path fill="#5DB0A7" d="M52.548,71.057c-0.188,0-0.376-0.001-0.563-0.004c-7.631-0.12-14.774-2.666-20.115-7.169
			c-5.396-4.551-8.314-10.552-8.214-16.896c0.135-8.592,6.709-16.8,16.749-20.912l0.734,1.793
			c-9.178,3.759-15.426,11.454-15.547,19.148c-0.09,5.752,2.582,11.216,7.527,15.384c5,4.216,11.71,6.6,18.895,6.713
			C59.22,69.237,65.981,67.056,71.112,63c5.071-4.011,7.916-9.388,8.006-15.141c0.125-7.959-5.816-15.662-15.136-19.624l0.758-1.784
			c10.049,4.272,16.452,12.687,16.314,21.438c-0.099,6.345-3.203,12.251-8.741,16.63C66.969,68.745,59.969,71.057,52.548,71.057z"/>
	</g>
	<g>
		<path fill="#5DB0A7" d="M52.289,46.428l-0.744-0.953c-0.627-0.803-15.355-19.766-15.207-29.251
			c0.157-9.975,8.36-15.935,16.2-15.935l0.244,0.002c7.636,0.119,16.072,7.176,15.934,16.441C68.57,26.5,53.69,44.722,53.057,45.493
			L52.289,46.428z M52.538,2.227c-6.901,0-14.124,5.247-14.262,14.027c-0.12,7.653,11.03,23.029,14.05,27.049
			c3.075-3.899,14.335-18.708,14.452-26.599c0.123-8.158-7.304-14.371-14.027-14.476L52.538,2.227z"/>
	</g>
	<g>
		<path fill="#5DB0A7" d="M14.827,65.243L0.354,61.319V33.415l0.192-0.258c0.211-0.282,5.271-6.98,15.501-13.558
			c8.488-5.458,20.959-8.936,21.485-9.081l0.515,1.868c-0.126,0.035-12.714,3.547-20.952,8.843
			C8.241,26.923,3.298,32.809,2.292,34.069v25.768l12.15,3.294l9.611-6.947l1.135,1.571L14.827,65.243z"/>
	</g>
	<g>
		
			<rect x="1.12" y="34.463" transform="matrix(0.972 0.2348 -0.2348 0.972 8.5525 -0.9681)" fill="#5DB0A7" width="14.443" height="1.938"/>
	</g>
	<g>
		
			<rect x="13.786" y="36.157" transform="matrix(1 0.0083 -0.0083 1 0.4175 -0.1209)" fill="#5DB0A7" width="1.939" height="28.03"/>
	</g>
	<g>
		<path fill="#5DB0A7" d="M15.42,37.694l-1.572-1.132c0.189-0.263,4.718-6.484,11.897-10.438c7.051-3.883,11.518-5.578,11.705-5.648
			l0.683,1.813c-0.046,0.017-4.538,1.723-11.452,5.532C19.896,31.558,15.465,37.633,15.42,37.694z"/>
	</g>
	<g>
		<path fill="#5DB0A7" d="M52.51,22.1c-3.389,0-6.144-2.757-6.144-6.145s2.755-6.144,6.144-6.144c3.388,0,6.145,2.756,6.145,6.144
			S55.897,22.1,52.51,22.1z M52.51,11.75c-2.319,0-4.206,1.886-4.206,4.206s1.887,4.207,4.206,4.207c2.32,0,4.207-1.887,4.207-4.207
			S54.83,11.75,52.51,11.75z"/>
	</g>
	<g>
		<rect x="27.473" y="26.488" fill="#5DB0A7" width="1.938" height="10.075"/>
	</g>
	<g>
		<path fill="#5DB0A7" d="M90.173,65.243l-10.361-7.489l1.135-1.571l9.611,6.947l12.15-3.294V34.07
			c-1.009-1.262-5.969-7.16-14.804-12.841c-8.238-5.296-20.826-8.809-20.952-8.843l0.515-1.868
			c0.526,0.145,12.997,3.623,21.485,9.081c10.229,6.578,15.29,13.276,15.501,13.558l0.192,0.258v27.905L90.173,65.243z"/>
	</g>
	<g>
		
			<rect x="95.689" y="28.21" transform="matrix(0.2349 0.972 -0.972 0.2349 108.3959 -66.8445)" fill="#5DB0A7" width="1.938" height="14.443"/>
	</g>
	<g>
		
			<rect x="76.23" y="49.203" transform="matrix(0.0086 1 -1 0.0086 139.6356 -40.5022)" fill="#5DB0A7" width="28.03" height="1.939"/>
	</g>
	<g>
		<path fill="#5DB0A7" d="M89.58,37.694c-0.045-0.061-4.476-6.136-11.261-9.873c-6.929-3.816-11.406-5.515-11.451-5.531l0.682-1.814
			c0.188,0.07,4.654,1.765,11.705,5.648c7.18,3.954,11.708,10.175,11.897,10.438L89.58,37.694z"/>
	</g>
	<g>
		<rect x="75.59" y="26.488" fill="#5DB0A7" width="1.938" height="10.075"/>
	</g>
</g>
</svg>
