<?xml version="1.0" encoding="utf-8"?>
<!-- Generator: Adobe Illustrator 16.0.0, SVG Export Plug-In . SVG Version: 6.00 Build 0)  -->
<!DOCTYPE svg PUBLIC "-//W3C//DTD SVG 1.1//EN" "http://www.w3.org/Graphics/SVG/1.1/DTD/svg11.dtd">
<svg version="1.1" id="Layer_1" xmlns="http://www.w3.org/2000/svg" xmlns:xlink="http://www.w3.org/1999/xlink" x="0px" y="0px"
	 width="105px" height="85px" viewBox="0 0 105 85" enable-background="new 0 0 105 85" xml:space="preserve">
<g>
	<g>
		<path fill="#5DB0A7" d="M78.824,80.188l-2.826-19.199L58.635,50.327L105,45.109L78.824,80.188z M63.976,51.518l13.662,8.39
			l2.323,15.781l21.155-28.35L63.976,51.518z"/>
	</g>
	<g>
		
			<rect x="89.048" y="38.412" transform="matrix(0.4768 0.879 -0.879 0.4768 93.9369 -51.1513)" fill="#5DB0A7" width="1.78" height="29.848"/>
	</g>
	<g>
		<g>
			<path fill="#5DB0A7" d="M36.349,40.959l-1.968-1.327c1.111-1.648,1.748-2.906,1.754-2.919l2.121,1.065
				C38.229,37.835,37.552,39.175,36.349,40.959z"/>
		</g>
		<g>
			<path fill="#5DB0A7" d="M25.185,49.942l-0.461-2.328c1.768-0.35,3.586-1.352,5.402-2.979l1.584,1.77
				C29.57,48.319,27.375,49.51,25.185,49.942z M17.757,48.438c-0.305-0.19-0.611-0.399-0.91-0.621
				c-1.669-1.232-2.75-3.253-3.128-5.843l2.349-0.342c0.284,1.948,1.042,3.428,2.19,4.276c0.25,0.185,0.504,0.358,0.756,0.516
				L17.757,48.438z M16.645,35.343l-2.275-0.675c0.684-2.306,1.796-4.553,3.216-6.497l1.917,1.4
				C18.24,31.299,17.252,33.295,16.645,35.343z M24.146,25.164l-1.284-1.997c0.403-0.259,0.819-0.505,1.237-0.731
				c1.777-0.96,3.585-1.689,5.374-2.167l0.611,2.294c-1.608,0.429-3.242,1.089-4.856,1.962
				C24.863,24.722,24.499,24.938,24.146,25.164z"/>
		</g>
		<g>
			<path fill="#5DB0A7" d="M40.386,25.53l-2.317-0.512c0.227-1.026,0.428-1.874,0.575-2.479c-0.517-0.163-1.252-0.352-2.172-0.47
				l0.303-2.354c2.358,0.302,3.758,1.009,3.815,1.039l0.849,0.435l-0.241,0.923C41.193,22.126,40.84,23.479,40.386,25.53z"/>
		</g>
		<g>
			<path fill="#5DB0A7" d="M36.394,71.266l-0.36-0.002c-1.533-0.015-3.048-0.094-4.502-0.236l0.23-2.362
				c1.386,0.136,2.83,0.211,4.294,0.226l0.338,0.001c0.686,0,1.411-0.019,2.158-0.056l0.118,2.371
				C37.884,71.246,37.118,71.266,36.394,71.266z M45.726,70.466l-0.354-2.348c2.101-0.317,4.386-0.737,6.793-1.249l0.494,2.322
				C50.204,69.713,47.872,70.141,45.726,70.466z M24.486,69.761c-2.372-0.641-4.636-1.493-6.73-2.535l1.058-2.125
				c1.954,0.972,4.07,1.769,6.291,2.368L24.486,69.761z M59.498,67.578l-0.591-2.3c2.168-0.557,4.42-1.176,6.692-1.84l0.665,2.279
				C63.968,66.389,61.691,67.015,59.498,67.578z M11.684,63.321c-1.873-1.527-3.568-3.271-5.039-5.185l1.881-1.447
				c1.36,1.769,2.927,3.381,4.658,4.792L11.684,63.321z M2.918,51.944c-1.003-2.194-1.763-4.503-2.257-6.863l2.323-0.486
				c0.459,2.188,1.163,4.328,2.093,6.362L2.918,51.944z M42.104,49.328c-0.771,0-1.53-0.063-2.257-0.189
				c-0.947-0.165-2.246-0.773-3.057-2.742l2.195-0.904c0.432,1.05,0.93,1.249,1.267,1.308c1.1,0.19,2.297,0.206,3.493,0.043
				l0.319,2.352C43.409,49.283,42.749,49.328,42.104,49.328z M51.005,46.368l-1.418-1.903c1.691-1.26,3.021-2.917,3.949-4.926
				l2.154,0.996C54.594,42.907,53.017,44.87,51.005,46.368z M38.355,39.108l-2.371-0.107c0.093-2.046,0.351-4.422,0.766-7.063
				l2.345,0.369C38.693,34.862,38.444,37.149,38.355,39.108z M2.372,37.941L0,37.872c0.019-0.646,0.06-1.295,0.121-1.928
				c0.173-1.771,0.457-3.521,0.842-5.203l2.313,0.53c-0.362,1.584-0.629,3.233-0.793,4.903C2.427,36.754,2.39,37.348,2.372,37.941z
				 M57.416,33.377l-2.369-0.154c0.033-0.502,0.05-1.023,0.05-1.552c0-0.247-0.003-0.497-0.011-0.751
				c-0.042-1.494-0.182-2.966-0.413-4.377l2.342-0.385c0.249,1.516,0.398,3.095,0.443,4.692c0.009,0.275,0.012,0.549,0.012,0.82
				C57.47,32.25,57.452,32.824,57.416,33.377z M5.392,24.879l-2.17-0.963c0.991-2.231,2.203-4.333,3.603-6.248l1.916,1.4
				C7.44,20.848,6.313,22.803,5.392,24.879z M52.836,20.13c-0.898-2.1-2.052-3.996-3.43-5.638l1.817-1.526
				c1.528,1.82,2.805,3.916,3.794,6.231L52.836,20.13z M13.271,14.151l-1.55-1.799c1.833-1.578,3.851-2.939,5.998-4.044l1.086,2.11
				C16.824,11.438,14.962,12.694,13.271,14.151z M44.433,10.235c-1.844-1.107-3.896-1.926-6.102-2.433l0.531-2.313
				c2.449,0.563,4.734,1.476,6.792,2.711L44.433,10.235z M25.064,8.072L24.492,5.77c2.306-0.574,4.712-0.896,7.152-0.958
				l0.061,2.372C29.437,7.242,27.203,7.541,25.064,8.072z"/>
		</g>
		<g>
			<path fill="#5DB0A7" d="M73.083,63.611l-0.736-2.257c2.075-0.676,3.331-1.122,3.344-1.126l0.795,2.236
				C76.434,62.483,75.191,62.924,73.083,63.611z"/>
		</g>
	</g>
</g>
</svg>
