<?xml version="1.0" encoding="utf-8"?>
<!-- Generator: Adobe Illustrator 16.0.0, SVG Export Plug-In . SVG Version: 6.00 Build 0)  -->
<!DOCTYPE svg PUBLIC "-//W3C//DTD SVG 1.1//EN" "http://www.w3.org/Graphics/SVG/1.1/DTD/svg11.dtd">
<svg version="1.1" id="Layer_1" xmlns="http://www.w3.org/2000/svg" xmlns:xlink="http://www.w3.org/1999/xlink" x="0px" y="0px"
	 width="68px" height="54.964px" viewBox="0 0 68 54.964" enable-background="new 0 0 68 54.964" xml:space="preserve">
<g>
	<g>
		
			<rect x="8.445" y="33.468" transform="matrix(0.7071 0.7071 -0.7071 0.7071 35.0431 6.8702)" fill="#6F6F70" width="1.566" height="24.535"/>
	</g>
	<g>
		
			<rect x="16.498" y="39.018" transform="matrix(0.7071 0.7071 -0.7071 0.7071 37.9132 1.3883)" fill="#6F6F70" width="1.566" height="14.884"/>
	</g>
	<g>
		
			<rect x="22.619" y="43.978" transform="matrix(0.7071 0.7071 -0.7071 0.7071 41.0558 -2.3812)" fill="#6F6F70" width="1.566" height="8.781"/>
	</g>
	<g>
		<path fill="#6F6F70" d="M36.365,51.017L16.984,31.635L48.619,0L68,19.381L36.365,51.017z M19.199,31.635l17.166,17.167
			l29.421-29.421L48.619,2.215L19.199,31.635z"/>
	</g>
	<g>
		<polygon fill="#6F6F70" points="18.179,32.413 18.005,30.856 44.829,27.846 47.841,1.02 49.397,1.194 46.246,29.263 		"/>
	</g>
	<g>
		
			<rect x="36.062" y="29.465" transform="matrix(0.9989 0.0467 -0.0467 0.9989 1.8953 -1.6787)" fill="#6F6F70" width="1.567" height="20.455"/>
	</g>
	<g>
		
			<rect x="55.9" y="9.586" transform="matrix(0.0418 0.9991 -0.9991 0.0418 74.1039 -37.6556)" fill="#6F6F70" width="1.567" height="20.438"/>
	</g>
</g>
</svg>
