<?xml version="1.0" encoding="utf-8"?>
<!-- Generator: Adobe Illustrator 16.0.0, SVG Export Plug-In . SVG Version: 6.00 Build 0)  -->
<!DOCTYPE svg PUBLIC "-//W3C//DTD SVG 1.1//EN" "http://www.w3.org/Graphics/SVG/1.1/DTD/svg11.dtd">
<svg version="1.1" id="Layer_1" xmlns="http://www.w3.org/2000/svg" xmlns:xlink="http://www.w3.org/1999/xlink" x="0px" y="0px"
	 width="62.999px" height="62.546px" viewBox="0.242 0.173 62.999 62.546" enable-background="new 0.242 0.173 62.999 62.546"
	 xml:space="preserve">
<g>
	<path fill="#FFFFFF" d="M31.517,62.719c-17.245,0-31.274-14.029-31.274-31.272c0-17.245,14.03-31.274,31.274-31.274
		c17.245,0,31.273,14.029,31.273,31.274c0,5.266-1.338,10.463-3.872,15.065l4.323,10.508l-12.947-0.57
		C44.841,60.551,38.355,62.719,31.517,62.719z M31.517,1.911c-16.286,0-29.535,13.25-29.535,29.536
		c0,16.286,13.249,29.534,29.535,29.534c6.558,0,12.772-2.109,17.972-6.104l0.252-0.191l10.857,0.479l-3.609-8.77l0.209-0.369
		c2.521-4.432,3.854-9.473,3.854-14.579C61.052,15.161,47.801,1.911,31.517,1.911z"/>
</g>
</svg>
