<?xml version="1.0" encoding="utf-8"?>
<!-- Generator: Adobe Illustrator 16.0.0, SVG Export Plug-In . SVG Version: 6.00 Build 0)  -->
<!DOCTYPE svg PUBLIC "-//W3C//DTD SVG 1.1//EN" "http://www.w3.org/Graphics/SVG/1.1/DTD/svg11.dtd">
<svg version="1.1" id="Layer_1" xmlns="http://www.w3.org/2000/svg" xmlns:xlink="http://www.w3.org/1999/xlink" x="0px" y="0px"
	 width="105px" height="85px" viewBox="0 0 105 85" enable-background="new 0 0 105 85" xml:space="preserve">
<g>
	<g>
		<path fill="#5DB0A7" d="M51.21,74.332c-18.406,0-33.381-14.974-33.381-33.379c0-18.406,14.975-33.381,33.381-33.381
			c18.406,0,33.38,14.975,33.38,33.381c0,5.571-1.403,11.073-4.062,15.953l4.701,11.419l-14.065-0.619
			C65.362,72.043,58.473,74.332,51.21,74.332z M51.21,10.024c-17.054,0-30.929,13.875-30.929,30.929S34.156,71.881,51.21,71.881
			c6.868,0,13.375-2.21,18.819-6.392l0.354-0.272L81.5,65.706l-3.691-8.967l0.296-0.521c2.639-4.639,4.035-9.918,4.035-15.266
			C82.139,23.898,68.264,10.024,51.21,10.024z"/>
	</g>
	<g>
		<g>
			<path fill="#5DB0A7" d="M53.102,30.066c0.036,1.083-0.759,1.95-2.022,1.95c-1.12,0-1.914-0.867-1.914-1.95
				c0-1.119,0.831-1.986,1.986-1.986C52.343,28.081,53.102,28.947,53.102,30.066z M49.563,52.458v-17.48h3.179v17.48H49.563z"/>
		</g>
	</g>
	<g>
		<g>
			<path fill="#5DB0A7" d="M94.997,38.61l-2.453-0.034c0.01-0.686-0.003-1.38-0.04-2.063l2.448-0.131
				C94.992,37.121,95.007,37.87,94.997,38.61z"/>
		</g>
		<g>
			<path fill="#5DB0A7" d="M92.016,32.445c-0.062-0.325-0.127-0.649-0.2-0.975c-0.223-1.01-0.498-2.018-0.819-2.997l2.331-0.763
				c0.346,1.056,0.643,2.143,0.883,3.231c0.078,0.351,0.149,0.7,0.215,1.05L92.016,32.445z M89.466,24.675
				c-0.592-1.227-1.272-2.425-2.022-3.561l2.046-1.351c0.81,1.227,1.545,2.521,2.185,3.846L89.466,24.675z M84.964,17.853
				c-0.894-1.026-1.867-2.003-2.89-2.905l1.621-1.84c1.104,0.972,2.153,2.026,3.118,3.134L84.964,17.853z"/>
		</g>
		<g>
			<path fill="#5DB0A7" d="M78.82,12.444c-0.571-0.381-1.16-0.749-1.751-1.09l1.225-2.124c0.639,0.368,1.274,0.764,1.89,1.176
				L78.82,12.444z"/>
		</g>
	</g>
	<g>
		<g>
			<path fill="#5DB0A7" d="M10.183,51.644c-0.085-0.734-0.147-1.481-0.183-2.219l2.449-0.12c0.034,0.685,0.091,1.376,0.17,2.055
				L10.183,51.644z"/>
		</g>
		<g>
			<path fill="#5DB0A7" d="M22.178,73.604c-1.102-0.903-2.153-1.883-3.125-2.913l1.783-1.683c0.901,0.955,1.875,1.862,2.896,2.696
				L22.178,73.604z M16.327,67.4c-0.833-1.149-1.6-2.365-2.28-3.612l2.153-1.174c0.63,1.156,1.34,2.283,2.112,3.346L16.327,67.4z
				 M12.246,59.914c-0.518-1.326-0.954-2.696-1.297-4.068l2.379-0.594c0.318,1.272,0.722,2.541,1.203,3.771L12.246,59.914z"/>
		</g>
		<g>
			<path fill="#5DB0A7" d="M27.586,77.21c-0.651-0.35-1.299-0.725-1.926-1.114l1.297-2.081c0.581,0.362,1.182,0.71,1.787,1.033
				L27.586,77.21z"/>
		</g>
	</g>
	<g>
		<path fill="#5DB0A7" d="M27.652,77.428c-5.991-3.204-10.799-8.086-13.904-14.12l2.18-1.123c2.877,5.59,7.331,10.113,12.88,13.081
			L27.652,77.428z"/>
	</g>
	<g>
		<path fill="#5DB0A7" d="M89.842,25.505c-2.549-5.747-6.734-10.52-12.103-13.803l1.279-2.092c5.795,3.543,10.313,8.696,13.065,14.9
			L89.842,25.505z"/>
	</g>
</g>
</svg>
